<svg width="27" height="27" viewBox="0 0 27 27" fill="none" xmlns="http://www.w3.org/2000/svg">
<g clip-path="url(#clip0_3101_171)">
<path d="M16.084 13.5C16.084 14.9271 14.9271 16.084 13.5 16.084C12.0729 16.084 10.916 14.9271 10.916 13.5C10.916 12.0729 12.0729 10.916 13.5 10.916C14.9271 10.916 16.084 12.0729 16.084 13.5Z" fill="#FBEBEB"/>
<path d="M19.5431 8.92818C19.4189 8.59159 19.2207 8.28693 18.9632 8.03685C18.7132 7.77936 18.4087 7.58119 18.0719 7.45698C17.7988 7.35089 17.3884 7.22462 16.6326 7.19022C15.815 7.15293 15.5699 7.1449 13.5001 7.1449C11.4301 7.1449 11.1849 7.15273 10.3675 7.19001C9.61176 7.22462 9.20121 7.35089 8.92827 7.45698C8.59147 7.58119 8.2868 7.77936 8.03693 8.03685C7.77944 8.28693 7.58128 8.59138 7.45686 8.92818C7.35077 9.20133 7.22449 9.61188 7.19009 10.3677C7.15281 11.1851 7.14478 11.4302 7.14478 13.5002C7.14478 15.57 7.15281 15.8152 7.19009 16.6328C7.22449 17.3885 7.35077 17.7989 7.45686 18.072C7.58128 18.4088 7.77924 18.7133 8.03673 18.9634C8.2868 19.2209 8.59126 19.419 8.92806 19.5432C9.20121 19.6495 9.61176 19.7758 10.3675 19.8102C11.1849 19.8475 11.4299 19.8553 13.4999 19.8553C15.5701 19.8553 15.8153 19.8475 16.6324 19.8102C17.3882 19.7758 17.7988 19.6495 18.0719 19.5432C18.748 19.2825 19.2823 18.7481 19.5431 18.072C19.6492 17.7989 19.7755 17.3885 19.8101 16.6328C19.8474 15.8152 19.8552 15.57 19.8552 13.5002C19.8552 11.4302 19.8474 11.1851 19.8101 10.3677C19.7757 9.61188 19.6494 9.20133 19.5431 8.92818ZM13.5001 17.4806C11.3015 17.4806 9.51926 15.6986 9.51926 13.5C9.51926 11.3014 11.3015 9.51939 13.5001 9.51939C15.6985 9.51939 17.4807 11.3014 17.4807 13.5C17.4807 15.6986 15.6985 17.4806 13.5001 17.4806ZM17.6381 10.2923C17.1243 10.2923 16.7078 9.87576 16.7078 9.36201C16.7078 8.84826 17.1243 8.43174 17.6381 8.43174C18.1518 8.43174 18.5684 8.84826 18.5684 9.36201C18.5682 9.87576 18.1518 10.2923 17.6381 10.2923Z" fill="#FBEBEB"/>
<path d="M13.5 0C6.0453 0 0 6.0453 0 13.5C0 20.9547 6.0453 27 13.5 27C20.9547 27 27 20.9547 27 13.5C27 6.0453 20.9547 0 13.5 0ZM21.2052 16.696C21.1677 17.5212 21.0365 18.0846 20.8449 18.5777C20.4422 19.619 19.619 20.4422 18.5777 20.8449C18.0848 21.0365 17.5212 21.1675 16.6962 21.2052C15.8695 21.2429 15.6055 21.252 13.5002 21.252C11.3947 21.252 11.1309 21.2429 10.304 21.2052C9.479 21.1675 8.91541 21.0365 8.42246 20.8449C7.90501 20.6502 7.43658 20.3452 7.04931 19.9507C6.65504 19.5636 6.34996 19.095 6.1553 18.5777C5.96372 18.0848 5.8325 17.5212 5.79501 16.6962C5.7569 15.8693 5.74805 15.6053 5.74805 13.5C5.74805 11.3947 5.7569 11.1307 5.79481 10.304C5.8323 9.4788 5.96331 8.91541 6.15488 8.42226C6.34955 7.90501 6.65483 7.43637 7.04931 7.04931C7.43637 6.65483 7.90501 6.34975 8.42226 6.15509C8.91541 5.96352 9.4788 5.8325 10.304 5.79481C11.1307 5.75711 11.3947 5.74805 13.5 5.74805C15.6053 5.74805 15.8693 5.75711 16.696 5.79501C17.5212 5.8325 18.0846 5.96352 18.5777 6.15488C19.095 6.34955 19.5636 6.65483 19.9509 7.04931C20.3452 7.43658 20.6505 7.90501 20.8449 8.42226C21.0367 8.91541 21.1677 9.4788 21.2054 10.304C21.2431 11.1307 21.252 11.3947 21.252 13.5C21.252 15.6053 21.2431 15.8693 21.2052 16.696Z" fill="#FBEBEB"/>
</g>
<defs>
<clipPath id="clip0_3101_171">
<rect width="27" height="27" fill="white"/>
</clipPath>
</defs>
</svg>
