<svg width="42" height="42" viewBox="0 0 42 42" fill="none" xmlns="http://www.w3.org/2000/svg">
<path d="M14.9351 8.69793C14.5715 8.68994 14.2144 8.79535 13.9134 8.9997C13.6125 9.20404 13.3827 9.49721 13.256 9.83818C13.1294 10.1791 13.1121 10.5511 13.2065 10.9023C13.301 11.2536 13.5026 11.5665 13.7833 11.7979L24.4918 20.9717L13.7833 30.1423C13.5891 30.285 13.4265 30.4662 13.3057 30.6746C13.1848 30.883 13.1083 31.1142 13.0809 31.3536C13.0535 31.593 13.0759 31.8354 13.1465 32.0657C13.2172 32.2961 13.3346 32.5094 13.4915 32.6923C13.6484 32.8751 13.8414 33.0234 14.0583 33.1283C14.2753 33.2331 14.5115 33.292 14.7523 33.3013C14.993 33.3105 15.2331 33.2702 15.4575 33.1824C15.6819 33.0946 15.8857 32.9614 16.0562 32.7912L28.3165 22.3013C28.509 22.137 28.6636 21.9331 28.7696 21.7032C28.8756 21.4734 28.9305 21.2232 28.9305 20.9701C28.9305 20.717 28.8756 20.4668 28.7696 20.237C28.6636 20.0072 28.509 19.803 28.3165 19.6387L16.0562 9.13877C15.7465 8.86367 15.3493 8.70728 14.9351 8.69753V8.69793Z" fill="white"/>
</svg>
