<svg width="42" height="42" viewBox="0 0 42 42" fill="none" xmlns="http://www.w3.org/2000/svg">
<path d="M27.0649 8.69793C27.4285 8.68994 27.7856 8.79535 28.0866 8.9997C28.3875 9.20404 28.6173 9.49721 28.744 9.83818C28.8706 10.1791 28.8879 10.5511 28.7935 10.9023C28.699 11.2536 28.4974 11.5665 28.2167 11.7979L17.5082 20.9717L28.2167 30.1423C28.4109 30.285 28.5735 30.4662 28.6943 30.6746C28.8152 30.883 28.8917 31.1142 28.9191 31.3536C28.9465 31.593 28.9241 31.8354 28.8535 32.0657C28.7828 32.2961 28.6654 32.5094 28.5085 32.6923C28.3516 32.8751 28.1586 33.0234 27.9417 33.1283C27.7247 33.2331 27.4885 33.292 27.2477 33.3013C27.007 33.3105 26.7669 33.2702 26.5425 33.1824C26.3181 33.0946 26.1143 32.9614 25.9438 32.7912L13.6835 22.3013C13.491 22.137 13.3364 21.9331 13.2304 21.7032C13.1244 21.4734 13.0695 21.2232 13.0695 20.9701C13.0695 20.717 13.1244 20.4668 13.2304 20.237C13.3364 20.0072 13.491 19.803 13.6835 19.6387L25.9438 9.13877C26.2535 8.86367 26.6507 8.70728 27.0649 8.69753V8.69793Z" fill="white"/>
</svg>
