<svg width="9" height="13" viewBox="0 0 9 13" fill="none" xmlns="http://www.w3.org/2000/svg">
<path d="M4.49999 13C4.21623 13 3.96212 12.8528 3.82029 12.6063C3.81879 12.6037 3.81734 12.6011 3.81589 12.5985L0.59225 6.69808C-0.177239 5.28964 -0.155174 3.6179 0.651283 2.22619C1.44025 0.86464 2.8416 0.0328174 4.39993 0.00102832C4.4665 -0.000342773 4.53343 -0.000342773 4.59996 0.00102832C6.15831 0.0328174 7.55967 0.86464 8.34865 2.22619C9.15511 3.6179 9.17718 5.28962 8.40769 6.69808L5.18404 12.5985C5.18259 12.6011 5.18115 12.6037 5.17965 12.6063C5.03784 12.8528 4.78376 13 4.49999 13ZM4.49997 0.812513C4.47206 0.812513 4.44424 0.812792 4.41646 0.813351C3.14441 0.8393 1.99965 1.51974 1.35425 2.63355C0.691375 3.77753 0.673043 5.15134 1.30524 6.30849L4.49997 12.156L7.69467 6.30852C8.32687 5.15134 8.30856 3.77753 7.64564 2.63355C7.00023 1.51977 5.85547 0.8393 4.58343 0.813351C4.55573 0.812792 4.52787 0.812513 4.49997 0.812513Z" fill="#2E3D80"/>
<path d="M4.5 5.89062C3.49197 5.89062 2.67188 5.07053 2.67188 4.0625C2.67188 3.05447 3.49197 2.23438 4.5 2.23438C5.50803 2.23438 6.32812 3.05447 6.32812 4.0625C6.32812 5.07053 5.50806 5.89062 4.5 5.89062ZM4.5 3.04688C3.93998 3.04688 3.48438 3.50248 3.48438 4.0625C3.48438 4.62252 3.93998 5.07812 4.5 5.07812C5.06002 5.07812 5.51562 4.62252 5.51562 4.0625C5.51562 3.50248 5.06002 3.04688 4.5 3.04688Z" fill="#2E3D80"/>
</svg>
